{"title":"The Hundred-Foot Journey (2014) BlurayRip 1080p, Dual Audio.","uid":11566998,"size":4417890437,"categoryP":"video","categoryS":"hd___movies","magnet":"?xt=urn:btih:387f566c5e64ab146c68af4b3a9386a7c4da6c5e&amp;dn=The+Hundred-Foot+Journey+%282014%29+BlurayRip+1080p%2C+Dual+Audio.&amp;tr=udp%3A%2F%2Ftracker.openbittorrent.com%3A80&amp;tr=udp%3A%2F%2Fopen.demonii.com%3A1337&amp;tr=udp%3A%2F%2Ftracker.coppersurfer.tk%3A6969&amp;tr=udp%3A%2F%2Fexodus.desync.com%3A6969","seeders":7,"leechers":1,"uploader":"molpol","files":-1,"time":1416965015,"description":"The Hundred-Foot Journey (2014) BlurayRip 1080p, Dual Audio.\n\nFormat                                   : Matroska\nFormat version                           : Version 4 / Version 2\nFile size                                : 4.11 GiB\nDuration                                 : 2h 2mn\nOverall bit rate                         : 4 809 Kbps\n\nVideo\nID                                       : 1\nFormat                                   : AVC\nFormat/Info                              : Advanced Video Codec\nFormat profile                           : &lt;a class=&quot;__cf_email__&quot; href=&quot;/cdn-cgi/l/email-protection&quot; data-cfemail=&quot;c981a0aea18985fde7f8&quot;&gt;[email&amp;#160;protected]&lt;/a&gt;&lt;script cf-hash='f9e31' type=&quot;text/javascript&quot;&gt;\n/* &lt;![CDATA[ */!function(){try{var t=&quot;currentScript&quot;in document?document.currentScript:function(){for(var t=document.getElementsByTagName(&quot;script&quot;),e=t.length;e--;)if(t[e].getAttribute(&quot;cf-hash&quot;))return t[e]}();if(t&amp;&amp;t.previousSibling){var e,r,n,i,c=t.previousSibling,a=c.getAttribute(&quot;data-cfemail&quot;);if(a){for(e=&quot;&quot;,r=parseInt(a.substr(0,2),16),n=2;a.length-n;n+=2)i=parseInt(a.substr(n,2),16)^r,e+=String.fromCharCode(i);e=document.createTextNode(e),c.parentNode.replaceChild(e,c)}}}catch(u){}}();/* ]]&gt; */&lt;/script&gt;\nFormat settings, CABAC                   : Yes\nFormat settings, ReFrames                : 2 frames\nCodec ID                                 : V_MPEG4/ISO/AVC\nDuration                                 : 2h 2mn\nBit rate                                 : 4 000 Kbps\nWidth                                    : 1 920 pixels\nHeight                                   : 1 080 pixels\nDisplay aspect ratio                     : 16:9\nFrame rate mode                          : Constant\nFrame rate                               : 23.976 fps\n\nAudio #1\nID                                       : 2\nFormat                                   : AC-3\nFormat/Info                              : Audio Coding 3\nMode extension                           : CM (complete main)\nFormat settings, Endianness              : Big\nCodec ID                                 : A_AC3\nDuration                                 : 2h 2mn\nBit rate mode                            : Constant\nBit rate                                 : 448 Kbps\nChannel count                            : 6 channels\nChannel positions                        : Front: L C R, Side: L R, LFE\nSampling rate                            : 48.0 KHz\nBit depth                                : 16 bits\nCompression mode                         : Lossy\nStream size                              : 392 MiB (9%)\nLanguage                                 : Latin\nDefault                                  : Yes\nForced                                   : No\n\nAudio #2\nID                                       : 3\nFormat                                   : AC-3\nFormat/Info                              : Audio Coding 3\nMode extension                           : CM (complete main)\nFormat settings, Endianness              : Big\nCodec ID                                 : A_AC3\nDuration                                 : 2h 2mn\nBit rate mode                            : Constant\nBit rate                                 : 448 Kbps\nChannel count                            : 6 channels\nChannel positions                        : Front: L C R, Side: L R, LFE\nSampling rate                            : 48.0 KHz\nBit depth                                : 16 bits\nCompression mode                         : Lossy\nStream size                              : 392 MiB (9%)\nLanguage                                 : English\nDefault                                  : No\nForced                                   : No\n\nText #1\nID                                       : 4\nFormat                                   : PGS\nMuxing mode                              : zlib\nCodec ID                                 : S_HDMV/PGS\nCodec ID/Info                            : The same subtitle format used on BDs/HD-DVDs\nLanguage                                 : Latin\nDefault                                  : Yes\nForced                                   : No\n\nText #2\nID                                       : 5\nFormat                                   : PGS\nMuxing mode                              : zlib\nCodec ID                                 : S_HDMV/PGS\nCodec ID/Info                            : The same subtitle format used on BDs/HD-DVDs\nLanguage                                 : Latin\nDefault                                  : No\nForced                                   : No\n\nText #3\nID                                       : 6\nFormat                                   : PGS\nMuxing mode                              : zlib\nCodec ID                                 : S_HDMV/PGS\nCodec ID/Info                            : The same subtitle format used on BDs/HD-DVDs\nLanguage                                 : English\nDefault                                  : No\nForced                                   : No\n\nMenu\n00:00:00.000                             : en:(01)00:00:00:000\n00:07:36.789                             : en:(02)00:07:36:789\n00:15:05.154                             : en:(03)00:15:05:154\n00:20:56.463                             : en:(04)00:20:56:463\n00:27:01.911                             : en:(05)00:27:01:911\n00:33:27.463                             : en:(06)00:33:27:463\n00:41:12.011                             : en:(07)00:41:12:011\n00:48:12.264                             : en:(08)00:48:12:264\n00:55:11.933                             : en:(09)00:55:11:933\n01:02:18.526                             : en:(10)01:02:18:526\n01:08:58.676                             : en:(11)01:08:58:676\n01:19:08.952                             : en:(12)01:19:08:952\n01:28:00.733                             : en:(13)01:28:00:733\n01:35:53.164                             : en:(14)01:35:53:164\n01:41:47.392                             : en:(15)01:41:47:392\n01:47:40.162                             : en:(16)01:47:40:162\n01:51:18.004                             : en:(17)01:51:18:004\n01:54:39.247                             : en:(18)01:54:39:247\n02:02:29.383                             : en:(19)02:02:29:383","torrent":{"xt":"urn:btih:387f566c5e64ab146c68af4b3a9386a7c4da6c5e","amp;dn":"The+Hundred-Foot+Journey+%282014%29+BlurayRip+1080p%2C+Dual+Audio.","amp;tr":["udp%3A%2F%2Ftracker.openbittorrent.com%3A80","udp%3A%2F%2Fopen.demonii.com%3A1337","udp%3A%2F%2Ftracker.coppersurfer.tk%3A6969","udp%3A%2F%2Fexodus.desync.com%3A6969"],"infoHash":"387f566c5e64ab146c68af4b3a9386a7c4da6c5e","infoHashBuffer":{"type":"Buffer","data":[56,127,86,108,94,100,171,20,108,104,175,75,58,147,134,167,196,218,108,94]},"announce":[],"urlList":[]}}